<svg xmlns="http://www.w3.org/2000/svg" viewBox="0 0 512 512">
  <rect width="512" height="512" rx="96" fill="#4f46e5"/>
  <path d="M132 160c0-20 16-36 36-36h144c58 0 104 46 104 104v144c0 20-16 36-36 36H168c-20 0-36-16-36-36V160Z" fill="#f8fafc"/>
  <path d="M192 200h106c26 0 46 20 46 46s-20 46-46 46h-46v56h-60V200Zm60 46v28h40c8 0 14-6 14-14s-6-14-14-14h-40Z" fill="#4f46e5"/>
  <path d="M342 352c-31 24-77 29-114 10" fill="none" stroke="#22c55e" stroke-width="28" stroke-linecap="round"/>
</svg>
